<svg width="314" height="293" xmlns="http://www.w3.org/2000/svg" xmlns:xlink="http://www.w3.org/1999/xlink"><defs><ellipse id="b" cx="149" cy="127" rx="149" ry="127"/><filter x="-5.2%" y="-3.3%" width="110.4%" height="112.2%" filterUnits="objectBoundingBox" id="a"><feMorphology radius="1" operator="dilate" in="SourceAlpha" result="shadowSpreadOuter1"/><feOffset dy="7" in="shadowSpreadOuter1" result="shadowOffsetOuter1"/><feGaussianBlur stdDeviation="3" in="shadowOffsetOuter1" result="shadowBlurOuter1"/><feColorMatrix values="0 0 0 0 0 0 0 0 0 0 0 0 0 0 0 0 0 0 0.5 0" in="shadowBlurOuter1"/></filter><linearGradient x1="50%" y1="0%" x2="50%" y2="100%" id="c"><stop stop-color="#FFB600" offset="0%"/><stop stop-color="#E0A000" offset="100%"/></linearGradient><linearGradient x1="50%" y1="0%" x2="50%" y2="100%" id="d"><stop stop-color="#FFF" offset="0%"/><stop stop-color="#E8E8E8" offset="100%"/></linearGradient></defs><g fill="none" fill-rule="evenodd"><g transform="translate(8 24)"><use fill="#000" filter="url(#a)" xlink:href="#b"/><use fill="#663C03" xlink:href="#b"/></g><path d="M263 238.555c-18.735 15.948-41.85 27.073-66.68 32.765V206H263v32.555zM55 240.98V206h66.68v66c-13.288-2.806-26.34-7.229-38.789-13.352-10.29-5.063-19.606-11.012-27.891-17.668z" fill="#FFF" opacity=".4"/><g transform="translate(7)"><ellipse fill="url(#c)" cx="150.91" cy="128.845" rx="150.025" ry="128.094"/><ellipse fill="url(#d)" cx="151.099" cy="128.152" rx="115.019" ry="98.206"/><path d="M150.903 221.905c-60.199 0-109-41.667-109-93.066 0-51.4 48.801-93.067 109-93.067s109 41.668 109 93.067c0 51.399-48.801 93.066-109 93.066zm-.16-11.983c52.466 0 95-36.316 95-81.113s-42.534-81.113-95-81.113c-52.468 0-95 36.316-95 81.113s42.532 81.113 95 81.113z" fill="#3E2D09"/><path d="M199.702 56.489c-2.392-1.38-3.375-4.155-2.196-6.197 1.18-2.042 4.073-2.578 6.465-1.197 2.391 1.38 3.374 4.155 2.195 6.197-1.178 2.042-4.073 2.578-6.464 1.197zm-102 151.126c-2.392-1.38-3.375-4.155-2.196-6.197 1.18-2.042 4.073-2.578 6.465-1.197 2.391 1.38 3.374 4.155 2.195 6.197-1.178 2.042-4.073 2.578-6.464 1.197zm151.035-78.688c0-2.762 1.911-5 4.27-5 2.357 0 4.268 2.238 4.268 5 0 2.761-1.911 5-4.269 5s-4.269-2.239-4.269-5zm-204 0c0-2.762 1.911-5 4.27-5 2.357 0 4.268 2.238 4.268 5 0 2.761-1.911 5-4.269 5s-4.269-2.239-4.269-5zm154.965 71.294c2.391-1.38 5.286-.845 6.464 1.197 1.18 2.042.196 4.817-2.195 6.197-2.392 1.38-5.286.845-6.465-1.197-1.179-2.042-.196-4.816 2.196-6.197zm-102-151.126c2.391-1.381 5.286-.845 6.464 1.197 1.18 2.042.196 4.816-2.195 6.197-2.392 1.38-5.286.845-6.465-1.197-1.179-2.042-.196-4.817 2.196-6.197zm52.804-38.209l7.935-3.562-1.515 7.545 6.42 5.342-8.872 1.101-3.968 6.864-3.967-6.864-8.872-1.1 6.42-5.343-1.516-7.545 7.935 3.562zm0 237.79l-7.935 3.561 1.516-7.544-6.42-5.343 8.872-1.1 3.967-6.865 3.968 6.864 8.871 1.101-6.42 5.343 1.516 7.544-7.935-3.562zM270.44 70.07l7.052 5.091-7.291 2.46-1.418 8.23-5.389-7.132-7.928-.004 3.96-6.868-3.482-8.234 7.837 2.889 5.776-5.085.883 8.653zM30.456 188.538l-7.052-5.092 7.291-2.46 1.418-8.23 5.389 7.133 7.928.004-3.96 6.868 3.482 8.233-7.837-2.888-5.776 5.084-.883-8.652zm239.983 0l-.883 8.652-5.776-5.084-7.837 2.888 3.483-8.233-3.96-6.868 7.927-.004 5.39-7.133 1.417 8.23 7.291 2.46-7.052 5.092zM30.456 70.07l.883-8.653 5.776 5.085 7.837-2.889-3.483 8.234 3.96 6.868-7.927.004-5.39 7.133-1.417-8.231-7.29-2.46 7.051-5.091zM188.42 7.263c12.547 2.84 24.866 7.127 36.646 12.934 11.572 5.705 21.918 12.528 30.957 20.216L245.17 51.278c-2.39 2.392-6.868 3.078-10.004 1.533l-48.833-24.073c-3.136-1.546-4.68-5.2-3.448-8.164l5.534-13.31zm-74.297 242.69c-12.547-2.84-24.866-7.127-36.646-12.934-11.572-5.705-21.918-12.528-30.957-20.216l10.852-10.865c2.39-2.392 6.868-3.078 10.004-1.533l48.834 24.073c3.136 1.546 4.68 5.201 3.447 8.164l-5.534 13.31zm178.71-154.325a110.717 110.717 0 0 1 5.203 33.564c0 11.41-1.747 22.47-5.026 32.999l-16.446-2.592c-3.621-.57-6.557-3.54-6.557-6.631v-48.145c0-3.092 2.936-6.061 6.557-6.632l16.268-2.563zM9.21 162.19a110.717 110.717 0 0 1-5.204-33.565c0-11.409 1.748-22.47 5.026-32.998l16.446 2.591c3.622.571 6.557 3.54 6.557 6.632v48.145c0 3.092-2.935 6.06-6.557 6.631L9.21 162.191zm246.723 55.334c-9.154 7.858-19.662 14.823-31.442 20.63-11.573 5.705-23.665 9.944-35.983 12.783l-5.595-13.456c-1.232-2.963.312-6.618 3.448-8.164l48.833-24.073c3.136-1.546 7.615-.86 10.005 1.533l10.734 10.747zM46.608 41.398c9.154-7.857 19.662-14.823 31.442-20.63 11.573-5.704 23.666-9.943 35.983-12.783l5.595 13.457c1.232 2.963-.312 6.618-3.448 8.164L67.347 53.678c-3.136 1.546-7.615.86-10.005-1.532L46.608 41.398z" fill="#FFF" opacity=".9"/></g></g></svg>